<?xml version="1.0" standalone="no"?><!DOCTYPE svg PUBLIC "-//W3C//DTD SVG 1.1//EN" "http://www.w3.org/Graphics/SVG/1.1/DTD/svg11.dtd"><svg t="1777905680570" class="icon" viewBox="0 0 1024 1024" version="1.1" xmlns="http://www.w3.org/2000/svg" p-id="2638" xmlns:xlink="http://www.w3.org/1999/xlink" width="256" height="256"><path d="M445.44 528.896C370.176 484.864 281.6 440.32 202.752 440.32c-35.328 0-69.12 9.216-98.304 31.232-36.352 27.136-54.784 67.072-53.248 116.224 1.536 59.392 33.28 125.44 72.192 175.104 61.44-77.312 210.944-171.008 322.048-233.984z" p-id="2639" fill="#fe7236"></path><path d="M497.408 499.5584l-0.256 0.1536h0.512l-0.256-0.1536z m80.64-42.3424c-1.024 0.512-33.6384 16.8448-80.64 42.3424C411.9552 447.8464 304.5376 389.12 203.776 389.12c-28.672 0-54.784 5.632-79.36 14.848 8.192-96.768 33.792-266.24 87.552-293.376 42.496-21.504 81.92 3.584 113.664 24.064l1.0752 0.6656c18.0736 11.5712 36.5568 23.3984 50.6368 23.3984h306.688c13.568 0 32-11.776 50.0736-23.3472l1.1264-0.7168 1.536-0.9728c31.488-19.8144 70.2976-44.2368 112.128-23.0912 45.056 22.528 74.24 174.592 85.504 279.04-23.04-11.264-49.664-16.896-79.872-16.896-68.096 0-158.72 27.648-276.48 84.48zM375.808 312.32a51.2 51.2 0 1 0 0-102.4 51.2 51.2 0 0 0 0 102.4z m307.2 0a51.2 51.2 0 1 0 0-102.4 51.2 51.2 0 0 0 0 102.4z" p-id="2640" fill="#fe7236"></path><path d="M929.28 445.952c-18.432-14.848-43.52-22.016-75.264-22.016-59.904 0-143.872 26.112-254.464 79.36-159.744 76.8-454.656 260.608-454.656 321.024 0 24.064 16.896 46.08 48.128 62.464 25.088 12.8 64.512 24.064 115.2 24.064h15.872c50.688-7.68 137.216-35.328 226.816-132.608 9.728-10.24 25.6-10.752 36.352-1.536 10.24 9.728 11.264 25.6 1.536 36.352-74.752 80.896-148.992 118.784-205.824 136.704 28.672 12.8 57.344 19.968 87.04 19.968 43.52 0 88.064-14.336 133.12-41.984 46.592-40.96 76.8-97.28 91.648-124.928 3.584-6.144 6.144-11.264 7.68-14.336a25.088 25.088 0 0 1 35.328-8.192c12.288 7.168 15.872 23.04 8.192 35.328-1.536 2.56-3.584 6.656-6.144 11.776-19.456 36.352-39.936 67.072-60.928 93.184 146.944-29.696 250.368-144.384 288.256-252.416 32.768-93.184 18.944-177.152-37.888-222.208z" p-id="2641" fill="#fe7236"></path></svg>